<?xml version="1.0" encoding="utf-8"?>
<!-- Generator: Adobe Illustrator 21.0.0, SVG Export Plug-In . SVG Version: 6.00 Build 0)  -->
<svg version="1.1" id="Calque_1" xmlns="http://www.w3.org/2000/svg" xmlns:xlink="http://www.w3.org/1999/xlink" x="0px" y="0px"
	 viewBox="0 0 1024 1024" style="enable-background:new 0 0 1024 1024;" xml:space="preserve">
<style type="text/css">
	.st0{fill:#FFFFFF;}
</style>
<rect width="1024" height="1024"/>
<g id="dimensions_12_">
	<g>
		<g>
			<path class="st0" d="M588.5,423.3c-2.5,0-5,0-7.8,0h-55.7L493,465v43.6h-90.2V465h55.1l32-41.7H351.5v85.2h-46v-85.2H228
				l-58.2,85.2h-46.7l-29.6,41.7h47.3l-35.8,51.6H162l33.9-51.9h58.2v51.9h51.3v-51.6h46v51.9h51.3v-51.9h90.8v51.9H545v-51.9h37.6
				c44.8,0,69.7-19.9,69.7-64.7C652.6,445.1,626.2,425.8,588.5,423.3z M223.6,508.5l30.8-46.7v46.7H223.6z M588.5,507.3
				c-7.2,3.1-16.8,3.1-26.1,3.1h-18v-47.3h18c10.3,0,19.3,0,26.1,3.1c6.5,3.1,10.9,9,10.9,21.2C599.4,498.2,595.1,504.2,588.5,507.3
				z"/>
		</g>
		<path class="st0" d="M723.5,664.7c-1.2-1.2-3.7-2.5-8.4-3.7c-2.5-0.6-5.9-0.6-5,0c0.6,0.6,4.4,2.5,8.4,3.7
			C722.9,665.9,724.8,665.9,723.5,664.7L723.5,664.7z M735.7,665.9c6.5,1.2,9,0.6,8.4-1.2c-1.2-1.9-4.4-3.7-11.5-5
			c-6.5-1.2-9-0.6-8.4,1.2C725.4,663.4,729.4,664.7,735.7,665.9L735.7,665.9z M755.6,667.8c-6.5-0.6-9.6,0-9,1.2
			c0.6,1.2,3.7,2.5,9.6,2.5c5.9,0.6,9,0,9-1.2C765.2,669.3,762.1,667.8,755.6,667.8L755.6,667.8z M736.3,633.3
			c0.6,1.9,1.9,3.7,4.4,5.9c2.5,1.9,5.9,2.5,9,2.5s6.5-0.6,9-1.9c2.5-1.2,3.7-3.1,3.7-5s-1.2-3.7-3.7-5.9c-2.5-1.9-5.9-2.5-9.6-2.5
			c-3.7,0-7.2,0.6-9,1.9C736.9,629.5,736.3,631.4,736.3,633.3L736.3,633.3z M741,656.9c1.2,2.5,4.4,4.4,11.5,4.4
			c7.2,0.6,10.3-0.6,10.3-3.7c0-1.2-1.2-1.9-3.1-3.1c-1.9-0.6-6.5-1.9-8.4-1.9s-6.5,0.6-7.8,0.6C742.2,654.4,741,655.7,741,656.9
			L741,656.9z M724.8,639.8c-2.5,0-6.5,0-7.8,0.6c-1.9,0.6-1.9,1.9-1.9,3.7c1.2,3.1,6.5,6.5,12.8,7.8c3.1,0.6,6.5,0,7.8-0.6
			c1.9-0.6,2.5-1.9,2.5-3.1c-0.6-1.9-1.9-3.1-4.4-5C730.7,641,727,639.8,724.8,639.8z M764.6,598.1c0-3.1-1.2-5.9-4.4-8.4
			c-3.1-2.5-7.2-4.4-11.5-4.4c-4.4,0-8.4,0.6-10.9,3.1c-2.5,1.9-3.7,5-3.7,8.4c0.6,3.1,1.9,6.5,4.4,8.4c3.1,1.9,6.5,3.7,10.9,3.7
			s7.8-0.6,10.3-2.5C762.7,604,764.6,601.2,764.6,598.1L764.6,598.1z M657,625.2c2.5,1.2,3.1,1.2,1.9-1.2l0,0
			c-1.2-2.5-3.7-5-6.5-6.5c-1.2-0.6-1.9-0.6-1.9-0.6C650.1,618,655.7,624.5,657,625.2z M700.5,649.4c1.2,2.5,4.4,4.4,9.6,5.9
			c5,1.9,7.2,0.6,6.5-1.9c-1.2-1.9-5-4.4-10.3-5.9C701.1,646,699.3,646.9,700.5,649.4L700.5,649.4z M690.9,650.7
			c1.9,1.9,4.4,3.7,9,5c3.1,1.2,5,0.6,4.4-0.6c-0.6-1.2-4.4-3.7-9-5C690.9,649.4,689.6,649.4,690.9,650.7L690.9,650.7z M676.2,631.4
			c1.9,3.1,5,6.5,9.6,7.8c4.4,1.2,6.5,0.6,5-1.9c-1.9-3.1-7.2-7.2-10.3-7.8c-1.9-0.6-3.1-0.6-4.4,0
			C675.6,628.9,675.6,630.1,676.2,631.4z M675.6,640.4c2.5,1.2,3.7,1.2,2.5-0.6c-1.2-1.9-3.7-4.4-7.2-5.9c-3.1-1.2-3.7-1.2-2.5,1.2
			C669.7,636.7,672.5,638.5,675.6,640.4L675.6,640.4z M690.9,619.9c-1.2,0.6-1.9,1.9-1.2,3.7c1.2,4.4,5,7.2,10.9,8.4
			c1.9,0.6,4.4,0.6,5.9,0c1.2-0.6,1.9-1.9,1.2-3.7c-1.2-3.7-5-7.2-11.5-9C694.9,618.6,692.7,618.6,690.9,619.9L690.9,619.9z
			 M706.4,604c-1.9,1.2-3.1,3.7-2.5,6.5s1.9,5,5,7.2c2.5,1.9,5.9,3.1,9.6,3.7c3.7,0.6,6.5,0,8.4-1.2c2.5-1.2,3.1-3.1,3.1-5.9
			c0-2.5-1.9-5-5-7.8c-2.5-1.9-6.5-3.7-10.3-4.4C711.4,601.8,708.9,602.8,706.4,604L706.4,604z M686.5,579.4c-2.5-0.6-5,0-6.5,1.9
			c-1.2,1.2-1.9,3.7-1.2,6.5c0.6,2.5,1.9,5,4.4,7.2c1.9,1.9,4.4,3.7,7.2,4.4c2.5,0.6,5,0,6.5-1.2c1.9-1.2,2.5-3.1,1.9-5.9
			c-0.6-2.8-1.9-5-4.4-7.8C692.1,581.6,689.6,580.4,686.5,579.4L686.5,579.4z M725.4,559.2c-3.1-3.1-7.2-4.4-10.9-5
			s-7.2,0.6-9.6,3.1c-2.5,1.9-3.1,5-3.1,9c0.6,3.7,1.9,7.8,5,10.3c3.1,2.5,6.5,4.4,10.3,5c3.7,0.6,7.8,0,10.3-2.5
			c2.5-1.9,3.7-5,3.7-9C730.1,565.4,728.8,562.3,725.4,559.2L725.4,559.2z M758.7,531.5c-3.7-3.1-8.4-5-12.8-5.9
			c-5,0-9,1.2-12.1,4.4c-3.1,3.1-5,7.2-4.4,11.5c0,5,1.9,9,5,12.1s7.8,5,12.1,5c5,0,9-1.2,12.1-3.7c3.1-3.1,5-7.2,5-11.5
			C764.6,539.3,762.7,534.6,758.7,531.5L758.7,531.5z M746.6,464.3c-5,0.6-9,1.9-12.1,5c-3.1,3.1-5,7.8-5,12.1c0,5,1.2,9,4.4,12.1
			c3.1,3.1,7.8,5,12.1,5c5-0.6,9.6-2.5,12.8-5.9c3.1-3.7,5-7.8,5-12.1s-1.9-9-5-12.1C755.6,466.2,751.8,464.3,746.6,464.3
			L746.6,464.3z M700.5,512.2c0,3.7,1.9,8.4,4.4,10.9c2.5,3.1,6.5,5,10.3,5c4.4,0,7.8-1.2,10.9-4.4s4.4-7.2,4.4-12.1
			s-1.9-9-4.4-12.1c-3.1-3.1-6.5-4.4-10.9-4.4c-3.7,0.6-7.8,1.9-10.3,5C702.4,504.2,700.5,508.5,700.5,512.2z M701.8,457.8
			c-0.6,3.7,0.6,7.2,3.1,9.6c2.5,2.5,5.9,3.7,9.6,3.1c4.4-0.6,7.8-2.5,10.9-5c3.1-3.1,5-6.5,5-10.3c0-3.7-1.2-7.2-3.7-9
			c-2.5-2.5-5.9-3.1-10.3-2.5c-3.7,0.6-7.8,1.9-10.3,5C703.6,451,702.4,454.1,701.8,457.8L701.8,457.8z M678.7,437.6
			c-0.6,2.5,0,4.4,1.2,6.5c1.2,1.9,3.7,1.9,6.5,1.9c2.5-0.6,5-1.9,7.8-4.4c2.5-2.5,3.7-5,4.4-7.8c0.6-2.5,0-5-1.9-6.5
			c-1.2-1.2-3.7-1.9-6.5-1.2c-2.5,0.6-5,1.9-7.2,4.4C680.6,432.3,679.4,434.8,678.7,437.6L678.7,437.6z M668.5,390
			c-1.2,1.9-0.6,1.9,2.5,0.6c3.1-1.9,5.9-3.7,7.2-5.9c1.2-1.9,0.6-1.9-2.5-0.6C672.5,385.6,670.3,387.5,668.5,390L668.5,390z
			 M706.4,392.5c-1.9-0.6-3.7-0.6-5.9,0c-5.9,1.2-9,4.4-10.9,8.4c-0.6,1.9,0,3.1,1.2,3.7c1.9,0.6,3.7,0.6,5.9,0.6
			c2.5-0.6,5-1.9,7.2-3.7s3.7-3.7,3.7-5C708.3,394.7,707.7,393.4,706.4,392.5L706.4,392.5z M686.5,385.6c-4.4,1.9-7.8,4.4-9.6,7.8
			c-1.9,3.1,0,3.7,5,2.5c5-1.9,8.4-4.4,10.3-7.8C692.7,385,690.9,384.4,686.5,385.6L686.5,385.6z M690.9,373.5
			c-1.2,1.9,0,1.9,4.4,0.6c4.4-1.9,8.4-3.7,9-5c1.2-1.2-0.6-1.9-4.4-0.6C695.5,369.5,692.1,372.3,690.9,373.5z M710.8,369.5
			c-5,1.2-8.4,3.1-9.6,5.9c-0.6,1.2,0,1.9,0.6,1.9c1.2,0.6,3.1,0,5-0.6c5.9-1.9,9-3.7,10.3-6.5c0.6-1.2,0-1.9-1.2-1.9
			C713.9,368.8,712,368.8,710.8,369.5z M727,404.3c-1.9-1.2-5-1.9-8.4-1.2c-3.1,0.6-6.5,1.9-9.6,3.7c-2.5,1.9-4.4,4.4-5,7.2
			s0,5,2.5,6.5c1.9,1.2,5,1.9,9,1.2c3.7-0.6,7.2-1.9,10.3-4.4c3.1-1.9,4.4-5,5-7.8C730.7,407.4,729.4,405.5,727,404.3L727,404.3z
			 M734.4,427.9c0,3.1,1.2,5.9,3.7,8.4c2.5,2.5,6.5,3.1,10.9,3.1s8.4-1.9,11.5-4.4c3.1-2.5,4.4-5,4.4-9c0-3.1-1.2-5.9-4.4-8.4
			c-2.5-1.9-6.5-2.5-10.3-2.5c-4.4,0-7.8,1.9-10.9,3.7C736.3,422,734.4,424.5,734.4,427.9L734.4,427.9z M737.5,377.2
			c0-1.2-0.6-2.5-2.5-3.7c-2.5-0.6-5-0.6-7.8-0.6c-7.2,1.2-11.5,3.7-12.8,7.8c-0.6,1.9,0,3.1,1.9,3.7c2.5,0.6,5,1.2,7.8,0.6
			C732.6,383.8,736.9,381,737.5,377.2L737.5,377.2z M758.7,384.4c-2.5-1.2-5-1.9-9-1.9c-3.1,0.6-6.5,1.2-9,3.1
			c-2.5,1.2-3.7,3.1-4.4,5c-0.6,1.9,0.6,3.7,3.1,5c2.5,1.2,5,1.9,9,1.9c3.7,0,7.2-1.2,9.6-3.1c2.5-1.9,3.7-3.7,3.7-5.9
			C762.7,387.5,761.5,385.6,758.7,384.4L758.7,384.4z M751.8,371.6c7.2,0,11.5-1.9,11.5-5l0,0c0-2.5-3.1-3.7-10.3-3.1
			c-7.2,0.6-10.9,1.9-11.5,5c0,1.2,0.6,1.9,2.5,2.5S747.2,371.6,751.8,371.6z M650.1,408c0.6,0,1.2,0,1.9-0.6c2.5-1.9,5-3.7,6.5-6.5
			c1.2-1.9,0.6-2.5-1.9-1.2c-2.5,1.2-4.4,3.7-6.5,6.5C650.7,406.8,650.1,407.4,650.1,408L650.1,408z M735.7,358.6
			c-5.9,1.2-9.6,2.5-10.9,4.4s1.2,2.5,8.4,1.2c6.5-1.2,10.3-2.5,11.5-4.4C744.7,358,741.6,357.3,735.7,358.6L735.7,358.6z
			 M718.6,360.1c-4.4,1.2-7.2,2.5-8.4,3.7c0,0.6,1.2,0.6,5,0c5-1.2,8.4-2.5,8.4-3.7C724.8,358.6,722.9,358.6,718.6,360.1
			L718.6,360.1z M745.9,354.8c-0.6,1.2,2.5,1.9,9,1.2c6.5-0.6,9.6-1.2,9.6-2.5c0-1.2-3.1-1.9-9-1.2
			C750.6,353,747.2,354.2,745.9,354.8L745.9,354.8z M782,661.6c-1.9-0.6-2.5-0.6-8.4-0.6c-5.9,0-12.1,1.9-12.1,3.7
			c0,2.5,3.7,3.1,11.5,3.1s11.5-1.2,12.1-3.7C785.1,663.4,784.5,662.2,782,661.6C782,661.6,783.9,662.2,782,661.6z M802.2,667.8
			c1.2-1.2-1.9-1.9-9-1.2c-7.8,1.2-11.5,1.9-12.1,3.7s2.5,1.9,9.6,1.2C797.3,670.6,801,669.3,802.2,667.8L802.2,667.8z M894.6,601.2
			c-1.9,1.2-2.5,0-1.9-2.5c1.2-3.1,2.5-5,4.4-5.9c1.9-0.6,2.5,0,1.2,3.1C897.7,598.1,896.5,600,894.6,601.2L894.6,601.2z
			 M828.7,659.1c-1.9,0.6-3.7,1.2-5,1.9c0.6-0.6,1.9-1.2,2.5-1.9c1.2-1.2,0.6-1.9-1.2-2.5c-1.9-0.6-3.7,0-8.4,0.6
			c-4.4,0.6-14,4.4-15.9,7.2c-1.2,2.5,1.9,3.1,10.3,1.2c1.9-0.6,3.7-0.6,5-1.2c-0.6,0.6-2.5,1.2-2.5,1.2c0,0.6,3.1,0.6,7.8-0.6
			c3.1-0.6,10.9-4.4,13.4-6.5C837.7,656.3,835.5,656.3,828.7,659.1L828.7,659.1z M825.3,636.1c-4.4,1.2-8.4,2.5-11.5,4.4
			s-5.9,4.4-6.5,6.5c-0.6,1.9,0,3.7,2.5,4.4c1.9,0.6,5,0.6,9,0c9-1.9,14.6-5,17.4-10.3c1.2-2.5,0.6-3.7-1.2-5
			C831.8,635.4,828.7,635.4,825.3,636.1L825.3,636.1z M784.5,658.5c0,1.2,0.6,2.5,2.5,3.1c1.2,0.6,2.5,0.6,8.4,0
			c5.9-0.6,12.8-2.5,14-5.9c0.6-1.2,0-2.5-1.9-3.1c-1.9-0.6-5-1.2-8.4-0.6c-1.9,0-7.8,1.9-9.6,2.5C787,655,784.5,656.9,784.5,658.5
			C784.5,658.5,784.5,656.9,784.5,658.5z M787,642.9c-2.5-1.2-5.9-1.9-10.3-1.9c-4.4,0-7.8,1.2-10.3,2.5s-4.4,3.1-4.4,5
			c0,1.9,1.2,3.7,3.7,4.4c2.5,1.2,5.9,1.9,9.6,1.2c3.7,0,7.2-0.6,9.6-1.9c2.5-1.2,4.4-3.1,5-5C790.7,646,789.5,644.1,787,642.9
			L787,642.9z M792.6,628.9c-3.1,1.9-5,4.4-5.9,7.2c0,2.5,1.2,4.4,3.1,5.9c2.5,1.2,5.9,1.9,9.6,1.2c3.7-0.6,7.8-1.9,10.9-3.7
			s5-3.7,5.9-6.5c0.6-2.5,0-4.4-2.5-5.9c-2.5-1.2-5.9-1.9-9.6-1.9C800.4,625.8,796.6,627,792.6,628.9L792.6,628.9z M780.5,608.4
			c-5,0-9,1.2-12.1,3.7c-3.1,1.9-5,5-5,8.4c0,3.1,1.9,5.9,4.4,7.8c3.1,1.9,6.5,3.1,10.9,2.5c4.4,0,8.4-1.2,11.5-3.1
			c3.1-1.9,5-4.4,5.9-7.8c0.6-3.1-1.2-5.9-3.7-7.8C788.9,609.6,785.1,608.4,780.5,608.4L780.5,608.4z M824.6,596.2
			c0.6-3.7-0.6-7.2-3.1-9.6s-6.5-3.7-11.5-3.1c-4.4,0.6-9,1.9-12.8,5c-3.7,3.1-5.9,6.5-5.9,10.3c-0.6,3.7,1.2,7.2,3.7,9
			c3.1,1.9,6.5,3.1,11.5,2.5c4.4-0.6,8.4-1.9,12.1-5C822.1,603.4,824,600,824.6,596.2L824.6,596.2z M782,557c-5,0-10.3,1.9-14,5
			s-5.9,7.8-5.9,12.1c0,4.4,1.9,8.4,5,11.5c3.1,2.5,7.8,4.4,12.8,4.4s9.6-1.2,13.4-5c3.7-3.1,5.9-7.2,6.5-11.5
			c0-4.4-1.2-8.4-4.4-11.5C792,559.2,787.6,557.7,782,557L782,557z M826.2,530.9c-3.1-3.7-7.2-5-12.1-5s-9.6,2.5-13.4,6.5
			c-3.7,3.7-5.9,8.4-6.5,14c0,5,1.2,9.6,5,12.8c3.1,3.1,7.8,4.4,12.8,4.4c5-0.6,9.6-2.5,12.8-5.9c3.7-3.7,5.9-8.4,5.9-12.8
			C830.5,538.7,828.7,534,826.2,530.9L826.2,530.9z M886.8,582.2c-1.2,3.7-3.7,5.9-7.2,7.2c-1.2,0-1.9,0-2.5-1.2
			c-0.6-1.2-0.6-1.9,0-3.7c1.9-4.4,4.4-6.5,7.8-7.2C887.5,576.3,888.1,578.2,886.8,582.2L886.8,582.2z M859.5,561.7
			c1.9-1.9,3.1-3.1,5-4.4c1.9,0,3.7,0,5,0.6c1.2,1.2,1.9,2.5,1.9,4.4c0,5-2.5,8.4-7.8,10.3c-1.9,0-3.1,0.6-5,0
			c-1.9-1.2-2.5-2.5-2.5-4.4C856.7,566.1,857.3,564.2,859.5,561.7L859.5,561.7z M903,535.9c0,4.4-1.2,7.2-4.4,9
			c-1.2,1.2-2.5,1.2-3.7,0.6c-1.2-0.6-1.9-1.9-1.9-3.1c-0.6-4.4,1.2-7.8,4.4-9.6c1.2-0.6,1.9-0.6,3.7,0
			C902.1,532.8,903,534,903,535.9L903,535.9z M917,512.2c0.6-3.7,1.2-5.9,3.1-5.9c1.9,0,3.1,1.9,3.1,5.9c0,3.7-1.2,5.9-3.1,5.9
			C918.3,518.2,917.6,516.3,917,512.2L917,512.2z M908.6,559.2c1.2-3.7,3.1-5.9,5-6.5c1.9,0,2.5,1.9,1.2,5c-1.2,3.7-3.1,5.9-5,6.5
			C908,564.8,907.4,563,908.6,559.2L908.6,559.2z M913.6,472.1c-1.9,0-3.7-1.9-5-6.5c-1.2-3.7-0.6-5.9,1.2-5c1.9,0.6,3.7,2.5,5,6.5
			C917,470.3,916.4,472.1,913.6,472.1L913.6,472.1z M894.6,478.3c1.2-0.6,1.9,0,3.7,0.6c3.1,1.9,4.4,5,4.4,9.6
			c0,1.9-0.6,3.1-1.9,3.7c-1.2,0.6-1.9,0.6-3.7-0.6c-3.1-1.9-4.4-5-4.4-9.6C893.4,480.2,894,479,894.6,478.3L894.6,478.3z
			 M870.4,465c-1.2,1.2-3.1,1.2-5,0.6c-1.9-0.6-3.7-1.9-5-4.4c-1.9-1.9-2.5-4.4-2.5-6.5c0-1.9,0.6-3.7,2.5-4.4c1.2-0.6,3.1-1.2,5,0
			c4.4,1.9,7.2,5,7.8,10.3C872.2,462.5,871.6,463.7,870.4,465L870.4,465z M781.1,491.1c-5.9,0-10.9,1.9-14.6,5.9
			c-3.7,3.7-5.9,9-5.9,14.6c0,5.9,1.9,10.9,5.9,14.6c3.7,3.7,9,5.9,14.6,5.9c5.9,0,10.9-1.9,14.6-6.5c3.7-3.7,6.5-9,6.5-14.6
			c0,0,0,0,0-0.6c-0.6-5.9-2.5-10.9-6.5-14.6C791.3,493.3,787,491.1,781.1,491.1L781.1,491.1z M799.7,450.3
			c-0.6-4.4-2.5-8.4-6.5-11.5c-3.7-3.1-8.4-4.4-13.4-4.4s-9.6,1.2-12.8,4.4c-3.7,3.1-5,6.5-5,11.5c0,4.4,1.9,8.4,5.9,12.1
			c3.7,3.1,8.4,5,14,5c5,0,10.3-1.2,13.4-4.4C798.5,459.4,800.4,455.3,799.7,450.3L799.7,450.3z M810.6,461.9c-5,0-9,1.2-12.8,4.4
			c-3.1,3.1-5,7.8-5,12.8c0.6,5,2.5,9.6,6.5,14c3.7,3.7,8.4,5.9,13.4,5.9s9-1.9,12.1-5c3.1-3.1,4.4-7.8,3.7-12.8
			c-0.6-5-2.5-9.6-5.9-13.4C820.3,463.7,815.9,461.9,810.6,461.9L810.6,461.9z M797.3,435.4c3.7,3.1,8.4,5,12.8,5
			c4.4,0.6,8.4-0.6,11.5-3.1c2.5-2.5,3.7-5.9,3.1-9.6c-0.6-3.7-3.1-7.2-6.5-10.3c-3.1-2.5-7.8-4.4-12.1-4.4
			c-4.4-0.6-8.4,0.6-11.5,2.5c-3.1,1.9-4.4,5-3.7,9C791.3,429.2,794.1,432.9,797.3,435.4L797.3,435.4z M778.6,394
			c-4.4,0-8.4,1.2-10.9,3.1c-3.1,1.9-4.4,4.4-4.4,7.8c0,3.1,1.9,5.9,5,8.4c3.1,2.5,7.8,3.7,12.1,3.7c5,0,8.4-1.2,11.5-3.1
			s4.4-5,3.7-8.4c-0.6-3.1-1.9-5.9-5.9-7.8C787,394.7,783.3,394,778.6,394L778.6,394z M785.7,372.3c-2.5-1.2-5.9-1.9-9.6-1.9
			c-3.7,0-7.2,0.6-9.6,1.2c-2.5,1.2-3.7,2.5-3.7,4.4s1.2,3.7,4.4,5c2.5,1.2,6.5,1.9,10.3,2.5c4.4,0,7.8-0.6,10.3-1.9
			c2.5-1.2,3.7-2.5,3.1-4.4C790.1,374.8,788.2,373.5,785.7,372.3L785.7,372.3z M811.3,385c-3.1-1.9-7.2-3.1-10.9-3.7
			c-3.7-0.6-7.2,0-9.6,1.2c-2.5,1.2-3.7,3.1-3.1,5.9c0.6,2.5,2.5,4.4,5.9,7.2c3.1,1.9,7.2,3.1,11.5,3.7c4.4,0.6,7.8,0,9.6-1.9
			c2.5-1.2,3.1-3.1,2.5-5.9S814.4,386.9,811.3,385L811.3,385z M810,372.9c-1.9,1.2-3.1,2.5-2.5,4.4c0.6,1.9,3.1,4.4,6.5,6.5
			c3.7,1.9,7.8,3.7,11.5,4.4c3.1,0.6,6.5,0,9-0.6c1.9-1.2,2.5-2.5,1.2-5c-1.2-1.9-3.1-4.4-6.5-6.5c-3.1-1.9-7.2-3.1-10.9-3.7
			C815.3,372.3,811.9,372.3,810,372.9L810,372.9z M879.7,434.2c3.1,1.2,5.9,3.1,7.2,7.2c1.2,3.7,0.6,5.9-1.9,5
			c-3.1-0.6-5.9-3.1-7.8-7.2c-0.6-1.9-0.6-3.1,0-4.4C877.2,434.2,878.4,434.2,879.7,434.2L879.7,434.2z M894,423.3
			c1.9,1.2,3.7,2.5,5,5c1.2,2.5,0.6,3.7-1.2,3.1c-1.9-0.6-3.7-1.9-5-5C891.2,423.9,892.1,422.7,894,423.3L894,423.3z M856.7,376
			c-3.7-2.5-7.8-4.4-11.5-6.5c-2.5-1.2-4.4-1.2-6.5-1.9c-1.2,0-1.2,0.6,0,1.9c0.6,0.6,1.9,1.9,2.5,2.5c-2.5-1.2-5-1.9-7.8-3.1
			c-2.5-0.6-4.4-1.2-7.8-1.2c-1.9,0.6-1.9,1.2-1.2,3.1c1.2,1.9,3.1,3.7,6.5,5.9c3.1,1.9,7.2,3.7,10.3,4.4c2.5,0.6,5.9,0.6,7.2,0.6
			c1.2,0,1.2-1.9,0-3.1c-1.2-1.2-1.9-1.9-2.5-2.5c2.5,1.9,6.5,3.7,8.4,4.4c1.9,0.6,2.5,0.6,3.7,0.6c0,0.6,0.6,1.2,1.2,1.9
			s1.9,1.9,3.1,2.5c-1.9-0.6-3.1-1.9-4.4-2.5c-3.1-1.2-5.9-1.9-7.2-1.2c-1.9,0.6-1.9,1.9-0.6,4.4c1.2,1.9,2.5,3.7,4.4,5.9
			c-2.5-1.9-5.9-3.7-9.6-4.4c-3.7-1.2-6.5-1.2-8.4,0c-1.9,1.2-2.5,3.1-1.9,5.9c1.2,3.1,3.7,5.9,7.2,8.4c3.1,3.1,8.4,5.9,10.9,5.9
			c2.5,0.6,7.2,0.6,8.4-0.6c1.2-1.2,1.2-4.4,0.6-6.5c-1.2-1.9-2.5-3.7-3.7-5.9c3.7,3.1,7.2,5,10.9,6.5c1.2,0.6,2.5,0.6,3.7,1.2
			c0,1.2,0.6,1.9,1.2,3.1c0.6,1.2,1.9,3.1,3.1,4.4c-1.9-0.6-3.1-1.9-5-2.5c-3.7-1.2-6.5-0.6-7.8,0c-1.9,1.2-1.9,4.4-0.6,8.4
			c0.6,1.2,1.2,2.5,1.9,3.7c-2.5-1.9-4.4-3.1-7.2-3.7c-3.1-0.6-6.5,0-9.6,0.6c0-1.9,0-3.1,0-5c-1.2-3.1-3.1-6.5-7.2-9.6
			c-3.1-2.5-7.8-4.4-11.5-5.9c-4.4-0.6-8.4-0.6-10.9,1.2c-2.5,1.9-3.7,4.4-3.1,8.4c0.6,3.7,3.1,7.2,7.2,10.3c3.7,3.1,8.4,5,12.8,6.5
			c3.1,0.6,5.9,0,8.4-0.6c-1.2,1.9-1.2,5-0.6,8.4c1.2,3.7,3.1,7.8,5.9,11.5c-3.1-3.1-7.2-5-10.9-5.9c-5-0.6-9,0.6-12.1,3.1
			c-3.1,2.5-4.4,7.2-3.7,12.1c0.6,5,3.1,9.6,7.8,14c3.7,4.4,8.4,6.5,13.4,7.2c3.7,0,7.2-0.6,9.6-2.5c-1.2,3.1-1.9,7.2-1.2,10.3
			c0.6,4.4,1.9,8.4,4.4,12.8c-3.1-2.5-6.5-3.7-10.3-3.7c-5.9,0-10.9,1.9-14.6,6.5c-4.4,4.4-7.2,10.3-7.2,16.8c0,0.6,0,0.6,0,1.2
			c0,6.5,1.9,12.1,7.2,16.8c4.4,4.4,9,6.5,14.6,5.9c3.7,0,7.8-1.2,10.3-3.7c-2.5,3.7-3.7,8.4-4.4,12.1c-0.6,3.7,0,7.8,1.2,10.9
			c-2.5-1.9-5.9-2.5-9.6-2.5c-5,0.6-9.6,2.5-13.4,7.2c-4.4,4.4-6.5,9-7.8,14c-0.6,5,0.6,9,3.7,12.1c3.1,2.5,7.2,3.7,12.1,3.1
			c4.4-0.6,8.4-2.5,10.9-5.9c-3.1,3.1-5,7.2-5.9,11.5c-0.6,3.1-0.6,5.9,0.6,8.4c-2.5-0.6-5.9-1.2-8.4-0.6c-4.4,0.6-9,2.5-12.8,5.9
			c-3.7,3.1-6.5,6.5-7.2,10.3s0,6.5,3.1,8.4c2.5,1.9,5.9,1.9,10.9,1.2c4.4-1.2,8.4-2.5,11.5-5.9c3.7-2.5,5.9-5.9,7.2-9.6
			c0.6-1.2,0.6-3.1,0-5c3.1,1.2,6.5,1.2,9.6,0.6c2.5-0.6,5.9-2.5,7.2-3.1c-0.6,1.2-0.6,1.2-1.9,3.7c-1.2,2.5-0.6,7.2,0.6,8.4
			c1.9,1.2,5.9,0.6,7.8,0c1.9-0.6,3.1-1.2,5-2.5c-1.2,1.2-1.9,3.1-3.1,4.4c-0.6,1.9-0.6,1.9-1.2,2.5c-1.2,0.6-2.5,0.6-3.7,1.2
			c-3.1,1.2-7.2,3.7-10.9,6.5c1.2-1.9,2.5-3.1,3.7-5.9c1.2-2.5,1.2-5-0.6-6.5c-2.5-1.2-5.9-1.2-8.4-0.6c-3.7,1.2-7.8,3.1-10.9,5.9
			c-3.7,2.5-5.9,5.9-7.2,8.4c-0.6,2.5,0,5,1.9,5.9c1.2,0.6,5,0.6,8.4,0c3.7-1.2,7.2-2.5,9.6-4.4c-1.9,1.9-3.1,3.7-4.4,5
			c-1.2,2.5-1.2,4.4,0.6,5c1.2,0.6,3.7,0,7.2-1.2c1.2-0.6,3.1-1.9,4.4-2.5c-1.2,1.2-1.9,1.9-3.1,3.1c-0.6,0.6-0.6,1.2-1.2,1.2
			c-1.2,0.6-2.5,0.6-3.1,1.2c-3.1,1.2-6.5,3.1-9,4.4c0.6-1.2,1.9-1.9,2.5-3.1c0.6-1.2,1.2-2.5,0-3.1c-1.9-0.6-4.4,0-7.2,0.6
			c-9,2.5-14,5.9-16.8,9.6c-1.2,1.2-0.6,2.5,1.2,3.1c1.2,0.6,5.9-0.6,7.8-0.6c1.2-0.6,5-1.9,7.8-3.1c-1.2,0.6-1.9,1.9-3.1,2.5
			c-1.2,1.2-1.2,2.5,0,1.9c1.2,0,4.4-1.2,6.5-1.9c2.5-0.6,4.4-1.9,6.5-3.1c25.5-12.8,79.3-68.4,79.3-139.1S883.7,391.9,856.7,376z
			 M785.1,360.8c-0.6-1.9-5-3.1-12.1-3.7c-7.8,0-11.5,0.6-11.5,3.1s4.4,3.7,12.1,3.7c3.1,0,5.9,0,8.4-0.6
			C784.5,362,785.1,361.4,785.1,360.8L785.1,360.8z M801,361.4c1.9,3.1,9,5.9,15.2,7.2c3.1,0.6,6.5,1.2,8.4,0.6s1.9-1.2,1.2-2.5
			c-0.6-0.6-1.9-1.2-2.5-1.9c1.9,0.6,3.7,1.2,5,1.9c6.5,1.9,8.4,1.9,6.5,0c-2.5-1.9-7.2-3.7-13.4-5.9c-3.1-0.6-7.2-0.6-7.8-0.6
			c-0.6,0,1.2,1.2,2.5,1.9c-1.9-0.6-3.1-1.2-5-1.9c-2.5-0.6-6.5-0.6-8.4-0.6C801.6,358.6,800.4,360.1,801,361.4L801,361.4z
			 M787,363.2c-1.9,0.6-3.1,1.9-2.5,3.1c0.6,3.1,5,5.9,14,6.5c3.1,0,5.9,0,8.4-0.6c1.9-0.6,2.5-1.9,1.9-3.1c-1.2-3.1-6.5-5-14-6.5
			C792.6,362,789.5,362,787,363.2L787,363.2z M790.7,353c-6.5-1.2-9.6,0-9.6,1.2c0.6,1.2,4.4,2.5,12.1,3.7c7.2,0.6,10.3,0,9-1.2
			C801.6,355.5,797.3,353.6,790.7,353z"/>
	</g>
</g>
</svg>
