<?xml version="1.0" standalone="no"?>
<!DOCTYPE svg PUBLIC "-//W3C//DTD SVG 20010904//EN"
 "http://www.w3.org/TR/2001/REC-SVG-20010904/DTD/svg10.dtd">
<svg version="1.0" xmlns="http://www.w3.org/2000/svg"
 width="1024.000000pt" height="1024.000000pt" viewBox="0 0 1024.000000 1024.000000"
 preserveAspectRatio="xMidYMid meet">
<metadata>
Created by potrace 1.11, written by Peter Selinger 2001-2013
</metadata>
<g transform="translate(0.000000,1024.000000) scale(0.100000,-0.100000)"
fill="#000000" stroke="none">
<path d="M5138 7283 l-3 -1308 -58 109 c-67 126 -99 174 -178 271 -274 335
-672 541 -1149 595 -122 14 -413 14 -527 0 -405 -49 -774 -203 -1078 -450 -86
-71 -246 -232 -316 -320 -211 -266 -384 -624 -474 -979 -119 -474 -135 -1097
-40 -1601 190 -1004 844 -1732 1710 -1905 315 -63 671 -59 970 9 481 111 890
430 1098 856 l42 85 3 -468 2 -467 793 2 792 3 3 3438 2 3437 -795 0 -795 0
-2 -1307z m-938 -1727 c245 -37 450 -144 618 -320 222 -234 324 -527 324 -931
0 -319 -68 -572 -213 -787 -63 -93 -203 -232 -297 -295 -320 -213 -797 -240
-1157 -63 -412 202 -622 628 -602 1219 6 176 22 282 63 421 123 408 442 691
852 755 116 18 296 18 412 1z"/>
<path d="M8334 5120 l0 -1710 953 0 953 0 0 1710 0 1710 -953 0 -953 0 0
-1710z"/>
</g>
</svg>
